<svg width="81" height="65" viewBox="0 0 81 65" fill="none" xmlns="http://www.w3.org/2000/svg">
<mask id="mask0_11_490" style="mask-type:luminance" maskUnits="userSpaceOnUse" x="27" y="9" width="34" height="34">
<path d="M27.8296 9.896H60.1216V42.8967H27.8296V9.896Z" fill="white"/>
</mask>
<g mask="url(#mask0_11_490)">
<path d="M41.473 42.1289C40.4868 42.5372 39.3196 42.7629 38.0733 42.7629C36.827 42.7629 35.2975 42.5257 34.2998 42.1289H34.3113V37.5965C34.3113 37.5965 30.3568 32.7679 28.7928 29.6184C27.1382 26.2863 27.8742 21.232 29.5288 16.9382C31.2509 12.4618 32.3621 9.83263 34.1302 10.2754C36.1585 10.7728 34.9568 13.7987 33.7335 17.6066C32.0444 22.8305 34.9683 27.0237 36.4302 27.6346C37.8921 28.247 36.4978 25.4022 35.6928 22.3777C35.2069 20.542 37.4048 19.0111 38.7532 22.1276C40.6234 26.4674 41.5405 28.6998 41.4615 32.5193C41.427 34.8078 41.473 42.1289 41.473 42.1289ZM46.5157 42.1289C47.5018 42.5372 48.6691 42.7629 49.9154 42.7629C51.1617 42.7629 52.6912 42.5257 53.6888 42.1289H53.6773V37.5965C53.6773 37.5965 57.6319 32.7679 59.1959 29.6184C60.8505 26.2863 60.113 21.232 58.4599 16.9382C56.7478 12.4618 55.6266 9.83263 53.8585 10.2754C51.8302 10.7728 53.0319 13.7987 54.2552 17.6066C55.9428 22.8305 53.0204 27.0237 51.5585 27.6346C50.0965 28.247 51.4895 25.4022 52.2945 22.3777C52.7818 20.542 50.5838 19.0111 49.2355 22.1276C47.3653 26.4674 46.4467 28.6998 46.5272 32.5193C46.5603 34.8078 46.5157 42.1289 46.5157 42.1289Z" fill="#00A8DE"/>
</g>
<mask id="mask1_11_490" style="mask-type:luminance" maskUnits="userSpaceOnUse" x="37" y="8" width="14" height="12">
<path d="M37.5601 8.94873H50.4401V19.832H37.5601V8.94873Z" fill="white"/>
</mask>
<g mask="url(#mask1_11_490)">
<path d="M41.8349 15.4089C43.6376 17.1985 43.0482 19.556 43.0482 19.556C43.0482 19.556 40.7022 20.1454 38.8996 18.3428C37.0984 16.5416 37.6993 14.1956 37.6993 14.1956C37.6993 14.1956 40.0453 13.6177 41.8349 15.4089ZM46.1532 15.3974C44.3621 17.187 44.9399 19.5445 44.9399 19.5445C44.9399 19.5445 47.2859 20.1339 49.0871 18.3313C50.8898 16.5301 50.3004 14.1956 50.3004 14.1956C50.3004 14.1956 47.9544 13.6062 46.1532 15.3974ZM41.9255 12.7337C41.9255 15.2723 43.9998 16.5186 43.9998 16.5186C43.9998 16.5186 46.0727 15.2723 46.0727 12.7337C46.0727 10.195 43.9998 8.94873 43.9998 8.94873C43.9998 8.94873 41.9255 10.195 41.9255 12.7337Z" fill="#8CC63F"/>
</g>
<path d="M19.353 49.0561C19.6247 49.1338 19.8389 49.2718 19.997 49.4701C20.1537 49.6699 20.2328 49.9215 20.2328 50.2234C20.2328 50.6345 20.079 50.9479 19.7728 51.1664C19.4652 51.3849 19.0195 51.4941 18.433 51.4941H16.1963V46.7964H18.3008C18.837 46.7964 19.251 46.9042 19.5428 47.1184C19.8375 47.334 19.9855 47.6301 19.9855 48.0096C19.9855 48.2598 19.928 48.4739 19.813 48.6536C19.698 48.8304 19.5442 48.9641 19.353 49.0561ZM16.8633 47.3426V48.8434H18.2375C18.5825 48.8434 18.847 48.7801 19.031 48.6536C19.2179 48.5271 19.3128 48.3403 19.3128 48.0901C19.3128 47.8458 19.2179 47.6589 19.031 47.5324C18.847 47.4059 18.5825 47.3426 18.2375 47.3426H16.8633ZM18.41 50.9479C18.7895 50.9479 19.0742 50.8875 19.2668 50.7639C19.458 50.6374 19.5543 50.4404 19.5543 50.1716C19.5543 49.6513 19.1719 49.3896 18.41 49.3896H16.8633V50.9479H18.41Z" fill="white"/>
<path d="M25.723 50.3211H23.2275L22.71 51.4941H22.02L24.1475 46.7964H24.8088L26.942 51.4941H26.2405L25.723 50.3211ZM25.4873 49.7806L24.4753 47.4806L23.4633 49.7806H25.4873Z" fill="white"/>
<path d="M30.4706 51.5459C30.1141 51.5459 29.7706 51.4927 29.4414 51.3849C29.1151 51.2742 28.8578 51.1319 28.6709 50.9594L28.9181 50.4361C29.0978 50.5971 29.3278 50.7279 29.6081 50.8271C29.887 50.9278 30.1745 50.9766 30.4706 50.9766C30.8573 50.9766 31.1463 50.9119 31.3389 50.7811C31.5301 50.6474 31.6264 50.4706 31.6264 50.2521C31.6264 50.0911 31.5746 49.9618 31.4711 49.8611C31.3676 49.7619 31.2368 49.6858 31.0801 49.6311C30.9263 49.5779 30.7093 49.5161 30.4304 49.4471C30.0739 49.3638 29.7864 49.2789 29.5679 49.1941C29.3523 49.1108 29.1683 48.9799 29.0159 48.8031C28.8621 48.6234 28.7859 48.3834 28.7859 48.0844C28.7859 47.8357 28.8506 47.6114 28.9814 47.4116C29.1151 47.2089 29.3163 47.0479 29.5851 46.9286C29.8525 46.8064 30.1846 46.7446 30.5799 46.7446C30.8588 46.7446 31.1333 46.782 31.4021 46.8539C31.6695 46.9229 31.8995 47.0249 32.0921 47.1586L31.8736 47.6934C31.6738 47.5712 31.4611 47.4778 31.2354 47.4116C31.0126 47.3469 30.7941 47.3139 30.5799 47.3139C30.2004 47.3139 29.9143 47.3829 29.7231 47.5209C29.5348 47.6589 29.4414 47.8371 29.4414 48.0556C29.4414 48.2209 29.4946 48.3532 29.6024 48.4524C29.7088 48.553 29.841 48.6306 29.9991 48.6881C30.1601 48.7428 30.3758 48.8017 30.6489 48.8664C31.0011 48.9512 31.2843 49.036 31.4999 49.1194C31.7141 49.2042 31.8981 49.335 32.0519 49.5104C32.2086 49.6829 32.2876 49.9172 32.2876 50.2119C32.2876 50.4577 32.2201 50.6819 32.0864 50.8846C31.9513 51.0888 31.7471 51.2498 31.4711 51.3676C31.198 51.4869 30.8645 51.5459 30.4706 51.5459Z" fill="white"/>
<path d="M38.1301 50.9076V51.4941H34.7261V46.7964H38.0381V47.3829H35.3931V48.8261H37.7506V49.3954H35.3931V50.9076H38.1301Z" fill="white"/>
<path d="M47.3146 46.7964L45.7448 51.4941H45.0376L43.7553 47.7451L42.4731 51.4941H41.7543L40.1846 46.7964H40.8803L42.1453 50.6144L43.4678 46.7964H44.0831L45.3826 50.6374L46.6763 46.7964H47.3146Z" fill="white"/>
<path d="M52.682 50.3211H50.1865L49.669 51.4941H48.979L51.1065 46.7964H51.7678L53.901 51.4941H53.1995L52.682 50.3211ZM52.4463 49.7806L51.4343 47.4806L50.4223 49.7806H52.4463Z" fill="white"/>
<path d="M56.9923 47.3829H55.3823V46.7964H59.2636V47.3829H57.6536V51.4941H56.9923V47.3829Z" fill="white"/>
<path d="M63.5558 51.5459C63.0843 51.5459 62.6588 51.4424 62.2793 51.2354C61.9027 51.0284 61.608 50.7438 61.3938 50.3786C61.1782 50.0149 61.0718 49.6053 61.0718 49.1481C61.0718 48.6924 61.1782 48.2828 61.3938 47.9176C61.608 47.5496 61.9055 47.2621 62.285 47.0551C62.6645 46.8481 63.09 46.7446 63.5615 46.7446C63.9295 46.7446 64.2645 46.8064 64.5678 46.9286C64.8697 47.0523 65.1284 47.2334 65.344 47.4749L64.9128 47.8946C64.5563 47.5266 64.115 47.3426 63.5903 47.3426C63.241 47.3426 62.9247 47.4217 62.6415 47.5784C62.3612 47.7322 62.1413 47.9464 61.9803 48.2224C61.8222 48.4984 61.7445 48.8074 61.7445 49.1481C61.7445 49.4859 61.8222 49.7921 61.9803 50.0681C62.1413 50.3441 62.3612 50.5612 62.6415 50.7179C62.9247 50.8717 63.241 50.9479 63.5903 50.9479C64.1107 50.9479 64.552 50.761 64.9128 50.3844L65.344 50.8099C65.1284 51.0514 64.8682 51.2354 64.562 51.3619C64.2587 51.4855 63.9238 51.5459 63.5558 51.5459Z" fill="white"/>
<path d="M71.8021 46.7964V51.4941H71.1294V49.4011H68.4326V51.4941H67.7656V46.7964H68.4326V48.8146H71.1294V46.7964H71.8021Z" fill="white"/>
</svg>
