<svg width="66" height="46" viewBox="0 0 66 46" fill="none" xmlns="http://www.w3.org/2000/svg">
<g clip-path="url(#clip0_23_2465)">
<mask id="mask0_23_2465" style="mask-type:luminance" maskUnits="userSpaceOnUse" x="16" y="0" width="34" height="34">
<path d="M16.8296 0.895996H49.1216V33.8967H16.8296V0.895996Z" fill="white"/>
</mask>
<g mask="url(#mask0_23_2465)">
<path d="M30.4729 33.1289C29.4868 33.5372 28.3195 33.7629 27.0732 33.7629C25.8269 33.7629 24.2974 33.5257 23.2998 33.1289H23.3113V28.5965C23.3113 28.5965 19.3567 23.7679 17.7927 20.6184C16.1381 17.2863 16.8741 12.232 18.5287 7.93819C20.2508 3.46182 21.362 0.832629 23.1301 1.27538C25.1585 1.77275 23.9567 4.79869 22.7334 8.60663C21.0443 13.8305 23.9682 18.0237 25.4302 18.6346C26.8921 19.247 25.4977 16.4022 24.6927 13.3777C24.2068 11.542 26.4048 10.0111 27.7531 13.1276C29.6233 17.4674 30.5405 19.6998 30.4614 23.5193C30.4269 25.8078 30.4729 33.1289 30.4729 33.1289ZM35.5156 33.1289C36.5018 33.5372 37.669 33.7629 38.9153 33.7629C40.1617 33.7629 41.6912 33.5257 42.6888 33.1289H42.6773V28.5965C42.6773 28.5965 46.6318 23.7679 48.1958 20.6184C49.8504 17.2863 49.113 12.232 47.4598 7.93819C45.7478 3.46182 44.6265 0.832629 42.8584 1.27538C40.8301 1.77275 42.0318 4.79869 43.2552 8.60663C44.9428 13.8305 42.0203 18.0237 40.5584 18.6346C39.0965 19.247 40.4894 16.4022 41.2944 13.3777C41.7817 11.542 39.5838 10.0111 38.2354 13.1276C36.3652 17.4674 35.4466 19.6998 35.5272 23.5193C35.5602 25.8078 35.5156 33.1289 35.5156 33.1289Z" fill="#00A8DE"/>
</g>
<mask id="mask1_23_2465" style="mask-type:luminance" maskUnits="userSpaceOnUse" x="26" y="-1" width="14" height="12">
<path d="M26.5601 -0.0512695H39.4401V10.832H26.5601V-0.0512695Z" fill="white"/>
</mask>
<g mask="url(#mask1_23_2465)">
<path d="M30.8352 6.40886C32.6378 8.19854 32.0484 10.556 32.0484 10.556C32.0484 10.556 29.7024 11.1454 27.8998 9.34279C26.0986 7.54161 26.6995 5.19561 26.6995 5.19561C26.6995 5.19561 29.0455 4.61773 30.8352 6.40886ZM35.1534 6.39736C33.3623 8.18704 33.9402 10.5445 33.9402 10.5445C33.9402 10.5445 36.2862 11.1339 38.0873 9.33129C39.89 7.53011 39.3006 5.19561 39.3006 5.19561C39.3006 5.19561 36.9546 4.60623 35.1534 6.39736ZM30.9257 3.73367C30.9257 6.27229 33 7.51861 33 7.51861C33 7.51861 35.0729 6.27229 35.0729 3.73367C35.0729 1.19504 33 -0.0512695 33 -0.0512695C33 -0.0512695 30.9257 1.19504 30.9257 3.73367Z" fill="#8CC63F"/>
</g>
<path d="M8.35304 40.0561C8.62473 40.1338 8.83891 40.2718 8.99704 40.4701C9.15373 40.6699 9.23279 40.9215 9.23279 41.2234C9.23279 41.6345 9.07898 41.9479 8.77279 42.1664C8.46516 42.3849 8.01954 42.4941 7.43304 42.4941H5.19629V37.7964H7.30079C7.83698 37.7964 8.25098 37.9042 8.54279 38.1184C8.83748 38.334 8.98554 38.6301 8.98554 39.0096C8.98554 39.2598 8.92804 39.4739 8.81304 39.6536C8.69804 39.8304 8.54423 39.9641 8.35304 40.0561ZM5.86329 38.3426V39.8434H7.23754C7.58254 39.8434 7.84704 39.7801 8.03104 39.6536C8.21791 39.5271 8.31279 39.3403 8.31279 39.0901C8.31279 38.8458 8.21791 38.6589 8.03104 38.5324C7.84704 38.4059 7.58254 38.3426 7.23754 38.3426H5.86329ZM7.41004 41.9479C7.78954 41.9479 8.07416 41.8875 8.26679 41.7639C8.45798 41.6374 8.55429 41.4404 8.55429 41.1716C8.55429 40.6513 8.17191 40.3896 7.41004 40.3896H5.86329V41.9479H7.41004Z" fill="#0F1419"/>
<path d="M14.723 41.3211H12.2275L11.71 42.4941H11.02L13.1475 37.7964H13.8088L15.942 42.4941H15.2405L14.723 41.3211ZM14.4873 40.7806L13.4753 38.4806L12.4633 40.7806H14.4873Z" fill="#0F1419"/>
<path d="M19.4706 42.5459C19.1141 42.5459 18.7706 42.4927 18.4414 42.3849C18.1151 42.2742 17.8578 42.1319 17.6709 41.9594L17.9181 41.4361C18.0978 41.5971 18.3278 41.7279 18.6081 41.8271C18.887 41.9278 19.1745 41.9766 19.4706 41.9766C19.8573 41.9766 20.1463 41.9119 20.3389 41.7811C20.5301 41.6474 20.6264 41.4706 20.6264 41.2521C20.6264 41.0911 20.5746 40.9618 20.4711 40.8611C20.3676 40.7619 20.2368 40.6858 20.0801 40.6311C19.9263 40.5779 19.7093 40.5161 19.4304 40.4471C19.0739 40.3638 18.7864 40.2789 18.5679 40.1941C18.3523 40.1108 18.1683 39.9799 18.0159 39.8031C17.8621 39.6234 17.7859 39.3834 17.7859 39.0844C17.7859 38.8357 17.8506 38.6114 17.9814 38.4116C18.1151 38.2089 18.3163 38.0479 18.5851 37.9286C18.8525 37.8064 19.1846 37.7446 19.5799 37.7446C19.8588 37.7446 20.1333 37.782 20.4021 37.8539C20.6695 37.9229 20.8995 38.0249 21.0921 38.1586L20.8736 38.6934C20.6738 38.5712 20.4611 38.4778 20.2354 38.4116C20.0126 38.3469 19.7941 38.3139 19.5799 38.3139C19.2004 38.3139 18.9143 38.3829 18.7231 38.5209C18.5348 38.6589 18.4414 38.8371 18.4414 39.0556C18.4414 39.2209 18.4946 39.3532 18.6024 39.4524C18.7088 39.553 18.841 39.6306 18.9991 39.6881C19.1601 39.7428 19.3758 39.8017 19.6489 39.8664C20.0011 39.9512 20.2843 40.036 20.4999 40.1194C20.7141 40.2042 20.8981 40.335 21.0519 40.5104C21.2086 40.6829 21.2876 40.9172 21.2876 41.2119C21.2876 41.4577 21.2201 41.6819 21.0864 41.8846C20.9513 42.0888 20.7471 42.2498 20.4711 42.3676C20.198 42.4869 19.8645 42.5459 19.4706 42.5459Z" fill="#0F1419"/>
<path d="M27.1301 41.9076V42.4941H23.7261V37.7964H27.0381V38.3829H24.3931V39.8261H26.7506V40.3954H24.3931V41.9076H27.1301Z" fill="#0F1419"/>
<path d="M36.3146 37.7964L34.7448 42.4941H34.0376L32.7553 38.7451L31.4731 42.4941H30.7543L29.1846 37.7964H29.8803L31.1453 41.6144L32.4678 37.7964H33.0831L34.3826 41.6374L35.6763 37.7964H36.3146Z" fill="#0F1419"/>
<path d="M41.682 41.3211H39.1865L38.669 42.4941H37.979L40.1065 37.7964H40.7678L42.901 42.4941H42.1995L41.682 41.3211ZM41.4463 40.7806L40.4343 38.4806L39.4223 40.7806H41.4463Z" fill="#0F1419"/>
<path d="M45.9923 38.3829H44.3823V37.7964H48.2636V38.3829H46.6536V42.4941H45.9923V38.3829Z" fill="#0F1419"/>
<path d="M52.5558 42.5459C52.0843 42.5459 51.6588 42.4424 51.2793 42.2354C50.9027 42.0284 50.608 41.7438 50.3938 41.3786C50.1782 41.0149 50.0718 40.6053 50.0718 40.1481C50.0718 39.6924 50.1782 39.2828 50.3938 38.9176C50.608 38.5496 50.9055 38.2621 51.285 38.0551C51.6645 37.8481 52.09 37.7446 52.5615 37.7446C52.9295 37.7446 53.2645 37.8064 53.5678 37.9286C53.8697 38.0523 54.1284 38.2334 54.344 38.4749L53.9128 38.8946C53.5563 38.5266 53.115 38.3426 52.5903 38.3426C52.241 38.3426 51.9247 38.4217 51.6415 38.5784C51.3612 38.7322 51.1413 38.9464 50.9803 39.2224C50.8222 39.4984 50.7445 39.8074 50.7445 40.1481C50.7445 40.4859 50.8222 40.7921 50.9803 41.0681C51.1413 41.3441 51.3612 41.5612 51.6415 41.7179C51.9247 41.8717 52.241 41.9479 52.5903 41.9479C53.1107 41.9479 53.552 41.761 53.9128 41.3844L54.344 41.8099C54.1284 42.0514 53.8682 42.2354 53.562 42.3619C53.2587 42.4855 52.9238 42.5459 52.5558 42.5459Z" fill="#0F1419"/>
<path d="M60.8021 37.7964V42.4941H60.1294V40.4011H57.4326V42.4941H56.7656V37.7964H57.4326V39.8146H60.1294V37.7964H60.8021Z" fill="#0F1419"/>
</g>
<defs>
<clipPath id="clip0_23_2465">
<rect width="66" height="46" fill="white"/>
</clipPath>
</defs>
</svg>
